<?xml version="1.0" encoding="UTF-8" standalone="no"?>
<svg
   xmlns:dc="http://purl.org/dc/elements/1.1/"
   xmlns:cc="http://creativecommons.org/ns#"
   xmlns:rdf="http://www.w3.org/1999/02/22-rdf-syntax-ns#"
   xmlns:svg="http://www.w3.org/2000/svg"
   xmlns="http://www.w3.org/2000/svg"
   xmlns:sodipodi="http://sodipodi.sourceforge.net/DTD/sodipodi-0.dtd"
   xmlns:inkscape="http://www.inkscape.org/namespaces/inkscape"
   height="493pt"
   viewBox="-5 0 493 493.59368"
   width="493pt"
   version="1.1"
   id="svg74"
   sodipodi:docname="win.svg"
   inkscape:version="0.92.1 r15371">
  <metadata
     id="metadata80">
    <rdf:RDF>
      <cc:Work
         rdf:about="">
        <dc:format>image/svg+xml</dc:format>
        <dc:type
           rdf:resource="http://purl.org/dc/dcmitype/StillImage" />
      </cc:Work>
    </rdf:RDF>
  </metadata>
  <defs
     id="defs78" />
  <sodipodi:namedview
     pagecolor="#ffffff"
     bordercolor="#666666"
     borderopacity="1"
     objecttolerance="10"
     gridtolerance="10"
     guidetolerance="10"
     inkscape:pageopacity="0"
     inkscape:pageshadow="2"
     inkscape:window-width="1366"
     inkscape:window-height="704"
     id="namedview76"
     showgrid="false"
     inkscape:zoom="0.35902637"
     inkscape:cx="328.66667"
     inkscape:cy="328.66667"
     inkscape:window-x="0"
     inkscape:window-y="27"
     inkscape:window-maximized="1"
     inkscape:current-layer="svg74" />
  <path
     d="m 193.89453,144.79297 12.80078,-9.59766 -43.19922,-54.402341 c -6.39843,-7.199219 -8,-17.597657 -4,-26.398438 4.80078,-13.601562 20,-20 33.60157,-15.199219 l 4.79687,1.597657 5.60156,-15.199219 -4.80078,-1.601562 c -21.59765,-8.796876 -46.39844,2.402343 -54.39844,24 -5.60156,14.402343 -3.19921,30.402343 6.39844,42.402343 z m 0,0"
     id="path2"
     inkscape:connector-curvature="0"
     style="fill:#e8821c" />
  <path
     d="m 329.09766,195.99219 62.39843,-7.19922 c 24,-2.39844 41.60157,-24.80078 39.19922,-48.80078 -1.59765,-16.79688 -12.80078,-30.39844 -28,-36.79688 l -7.19922,-3.203122 -5.60156,15.203122 7.20313,3.19922 c 14.39843,5.59766 21.59765,22.39844 16,36.80078 -4,9.59766 -12.80079,16.79688 -23.20313,17.59766 l -62.39844,7.19922 z m 0,0"
     id="path4"
     inkscape:connector-curvature="0"
     style="fill:#e8821c" />
  <path
     d="m 269.09766,207.19531 31.19921,-3.20312 c 36,-3.19922 67.19922,-26.39844 80.80079,-60.79688 l 20.79687,-52.800779 c 3.20313,-8 -0.79687,-17.601562 -8.79687,-20.800781 h -0.80079 L 223.49609,8.792969 c -8,-3.199219 -17.60156,1.601562 -20.80078,9.601562 l -17.59765,52.800781 c -10.40235,31.999998 -4,67.199218 18.39843,92.796878 l 21.60157,24.80078 -85.60157,224 h -32 c -6.39843,0 -12.800777,4 -14.398433,10.40234 l -4.800782,12 117.597655,46.39844 4.80078,-12 c 2.40235,-6.39844 0.80078,-12.80078 -4,-17.60156 l -23.19922,-22.39844 z m 0,0"
     id="path6"
     inkscape:connector-curvature="0"
     style="fill:#f4a422" />
  <path
     d="m 234.69531,153.59375 11.19922,-11.19922 c -35.19922,-35.19922 0.80078,-93.601561 0.80078,-94.402342 l -13.59765,-8.796876 c -1.60157,3.199219 -42.40235,70.398438 1.59765,114.398438 z m 0,0"
     id="path8"
     inkscape:connector-curvature="0"
     style="fill:#edc17c" />
  <path
     d="m 93.097657,423.99219 c 2.398437,-6.39844 8.000003,-10.39844 14.398433,-10.39844 h 32 l 44,17.60156 23.19922,22.39844 c 4.80078,4.80078 6.40235,11.19922 4,17.60156 l -4.80078,12 -117.597655,-46.40234 z m 0,0"
     id="path10"
     inkscape:connector-curvature="0"
     style="fill:#e8821c" />
  <path
     d="m 109.09766,326.39453 45.59765,-122.40234 c 3.19922,-8 12,-12.79688 20.80078,-9.59766 h 0.80078 l 88,38.39844 c 4.80079,2.40234 8,6.40234 9.59766,11.19922 l 6.40234,32 200,80 v 112 l -232,-96 -59.19921,7.20312 c -3.20313,0 -6.40235,0 -8.80079,-1.60156 l -63.19921,-31.19922 c -7.20313,-4 -10.40235,-12 -8,-20 z m 0,0"
     id="path12"
     inkscape:connector-curvature="0"
     style="fill:#efccbf" />
  <path
     d="m 280.29687,275.99219 80,32 -32,96.80078 -80,-32.80078 z m 0,0"
     id="path14"
     inkscape:connector-curvature="0"
     style="fill:#676b7f" />
  <g
     id="g22"
     transform="matrix(-1,0,0,1,483.79297,0)"
     style="fill:#f4c167">
    <path
       d="m 403.49609,35.992188 v 8 c 0,26.402343 -21.59765,48 -48,48 26.40235,0 48,21.601562 48,48.000002 v 8 -8 c 0,-26.39844 21.60157,-48.000002 48,-48.000002 -26.39843,0 -48,-21.597657 -48,-48 z m 0,0"
       id="path16"
       inkscape:connector-curvature="0" />
    <path
       d="m 51.496094,195.99219 v 8 c 0,26.40234 -21.597656,48 -48,48 26.402344,0 48,21.60156 48,48 v 8 -8 c 0,-26.39844 21.601562,-48 48,-48 -26.398438,0 -48,-21.59766 -48,-48 z m 0,0"
       id="path18"
       inkscape:connector-curvature="0" />
    <path
       d="m 435.49609,195.99219 v 8 c 0,26.40234 -21.59765,48 -48,48 26.40235,0 48,21.60156 48,48 v 8 -8 c 0,-26.39844 21.60157,-48 48,-48 -26.39843,0 -48,-21.59766 -48,-48 z m 0,0"
       id="path20"
       inkscape:connector-curvature="0" />
  </g>
  <path
     d="m 328.29687,404.79297 152,63.19922 v -112 l -120,-48 z m 0,0"
     id="path24"
     inkscape:connector-curvature="0"
     style="fill:#4a4a56" />
  <path
     d="m 311.49609,366.39453 -14.39843,-4.80078 23.19921,-69.60156 14.39844,5.60156 z m 0,0"
     id="path26"
     inkscape:connector-curvature="0"
     style="fill:#4a4a56" />
  <path
     d="m 148.29687,220.79297 46.39844,16 -4.80078,14.40234 -47.19922,-15.20312 z m 0,0"
     id="path28"
     inkscape:connector-curvature="0"
     style="fill:#d8b4ad" />
  <path
     d="m 133.09766,261.59375 45.59765,15.19922 -4.80078,14.40234 -46.39844,-15.20312 z m 0,0"
     id="path30"
     inkscape:connector-curvature="0"
     style="fill:#d8b4ad" />
  <path
     d="m 118.69531,301.59375 44,15.19922 -4.80078,14.40234 -44.79687,-14.40234 z m 0,0"
     id="path32"
     inkscape:connector-curvature="0"
     style="fill:#d8b4ad" />
  <path
     d="m 193.89453,144.79297 12.80078,-9.59766 -43.19922,-54.402341 c -6.39843,-7.199219 -8,-17.597657 -4,-26.398438 4.80078,-13.601562 20,-20 33.60157,-15.199219 l 4.79687,1.597657 5.60156,-15.199219 -4.80078,-1.601562 c -21.59765,-8.796876 -46.39844,2.402343 -54.39844,24 -5.60156,14.402343 -3.19921,30.402343 6.39844,42.402343 z m 0,0"
     id="path34"
     inkscape:connector-curvature="0"
     style="fill:#e8821c" />
  <path
     d="m 329.09766,195.99219 62.39843,-7.19922 c 24,-2.39844 41.60157,-24.80078 39.19922,-48.80078 -1.59765,-16.79688 -12.80078,-30.39844 -28,-36.79688 l -7.19922,-3.203122 -5.60156,15.203122 7.20313,3.19922 c 14.39843,5.59766 21.59765,22.39844 16,36.80078 -4,9.59766 -12.80079,16.79688 -23.20313,17.59766 l -62.39844,7.19922 z m 0,0"
     id="path36"
     inkscape:connector-curvature="0"
     style="fill:#e8821c" />
  <path
     d="m 269.09766,207.19531 31.19921,-3.20312 c 36,-3.19922 67.19922,-26.39844 80.80079,-60.79688 l 20.79687,-52.800779 c 3.20313,-8 -0.79687,-17.601562 -8.79687,-20.800781 h -0.80079 L 223.49609,8.792969 c -8,-3.199219 -17.60156,1.601562 -20.80078,9.601562 l -17.59765,52.800781 c -10.40235,31.999998 -4,67.199218 18.39843,92.796878 l 21.60157,24.80078 -85.60157,224 h -32 c -6.39843,0 -12.800777,4 -14.398433,10.40234 l -4.800782,12 117.597655,46.39844 4.80078,-12 c 2.40235,-6.39844 0.80078,-12.80078 -4,-17.60156 l -23.19922,-22.39844 z m 0,0"
     id="path38"
     inkscape:connector-curvature="0"
     style="fill:#f4a422" />
  <path
     d="m 234.69531,153.59375 11.19922,-11.19922 c -35.19922,-35.19922 0.80078,-93.601561 0.80078,-94.402342 l -13.59765,-8.796876 c -1.60157,3.199219 -42.40235,70.398438 1.59765,114.398438 z m 0,0"
     id="path40"
     inkscape:connector-curvature="0"
     style="fill:#edc17c" />
  <path
     d="m 93.097657,423.99219 c 2.398437,-6.39844 8.000003,-10.39844 14.398433,-10.39844 h 32 l 44,17.60156 23.19922,22.39844 c 4.80078,4.80078 6.40235,11.19922 4,17.60156 l -4.80078,12 -117.597655,-46.40234 z m 0,0"
     id="path42"
     inkscape:connector-curvature="0"
     style="fill:#e8821c" />
  <path
     d="m 109.09766,326.39453 45.59765,-122.40234 c 3.19922,-8 12,-12.79688 20.80078,-9.59766 h 0.80078 l 88,38.39844 c 4.80079,2.40234 8,6.40234 9.59766,11.19922 l 6.40234,32 200,80 v 112 l -232,-96 -59.19921,7.20312 c -3.20313,0 -6.40235,0 -8.80079,-1.60156 l -63.19921,-31.19922 c -7.20313,-4 -10.40235,-12 -8,-20 z m 0,0"
     id="path44"
     inkscape:connector-curvature="0"
     style="fill:#efccbf" />
  <path
     d="m 280.29687,275.99219 80,32 -32,96.80078 -80,-32.80078 z m 0,0"
     id="path46"
     inkscape:connector-curvature="0"
     style="fill:#676b7f" />
  <path
     d="m 80.296875,35.992188 v 8 c 0,26.402343 21.597655,48 47.999995,48 -26.40234,0 -47.999995,21.601562 -47.999995,48.000002 v 8 -8 c 0,-26.39844 -21.601562,-48.000002 -48,-48.000002 26.398438,0 48,-21.597657 48,-48 z m 0,0"
     id="path48"
     inkscape:connector-curvature="0"
     style="fill:#f4c167" />
  <path
     d="m 432.29687,195.99219 v 8 c 0,26.40234 21.59766,48 48,48 -26.40234,0 -48,21.60156 -48,48 v 8 -8 c 0,-26.39844 -21.60156,-48 -48,-48 26.39844,0 48,-21.59766 48,-48 z m 0,0"
     id="path50"
     inkscape:connector-curvature="0"
     style="fill:#f4c167" />
  <path
     d="m 48.296875,195.99219 v 8 c 0,26.40234 21.597656,48 48,48 -26.402344,0 -48,21.60156 -48,48 v 8 -8 c 0,-26.39844 -21.601562,-48 -48,-48 26.398438,0 48,-21.59766 48,-48 z m 0,0"
     id="path52"
     inkscape:connector-curvature="0"
     style="fill:#f4c167" />
  <path
     d="m 328.29687,404.79297 152,63.19922 v -112 l -120,-48 z m 0,0"
     id="path54"
     inkscape:connector-curvature="0"
     style="fill:#4a4a56" />
  <path
     d="m 311.49609,366.39453 -14.39843,-4.80078 23.19921,-69.60156 14.39844,5.60156 z m 0,0"
     id="path56"
     inkscape:connector-curvature="0"
     style="fill:#4a4a56" />
  <path
     d="m 148.29687,220.79297 46.39844,16 -4.80078,14.40234 -47.19922,-15.20312 z m 0,0"
     id="path58"
     inkscape:connector-curvature="0"
     style="fill:#d8b4ad" />
  <path
     d="m 133.09766,261.59375 45.59765,15.19922 -4.80078,14.40234 -46.39844,-15.20312 z m 0,0"
     id="path60"
     inkscape:connector-curvature="0"
     style="fill:#d8b4ad" />
  <path
     d="m 118.69531,301.59375 44,15.19922 -4.80078,14.40234 -44.79687,-14.40234 z m 0,0"
     id="path62"
     inkscape:connector-curvature="0"
     style="fill:#d8b4ad" />
  <path
     d="m 88.296875,139.99219 v 8 h -16 v -8 c 0,-22.39844 -17.601562,-40.000002 -40,-40.000002 v -16 c 22.398438,0 40,-17.597657 40,-40 v -8 h 16 v 8 c 0,22.402343 17.597655,40 39.999995,40 v 16 c -22.40234,0 -39.999995,17.601562 -39.999995,40.000002 z m -8,-67.199221 c -4.800781,8 -11.199218,14.402343 -19.199218,19.199219 8,4.800781 14.398437,11.203122 19.199218,19.203122 4.800782,-8 11.199219,-14.402341 19.199219,-19.203122 -8,-4.796876 -14.398437,-11.199219 -19.199219,-19.199219 z m 0,0"
     id="path64"
     inkscape:connector-curvature="0" />
  <path
     d="m 440.29687,299.99219 v 8 h -16 v -8 c 0,-22.39844 -17.60156,-40 -40,-40 v -16 c 22.39844,0 40,-17.59766 40,-40 v -8 h 16 v 8 c 0,22.40234 17.59766,40 40,40 v 16 c -22.40234,0 -40,17.60156 -40,40 z m -8,-67.19922 c -4.80078,8 -11.19921,14.40234 -19.19921,19.19922 8,4.80078 14.39843,11.20312 19.19921,19.20312 4.80079,-8 11.19922,-14.40234 19.19922,-19.20312 -8,-4.79688 -14.39843,-11.19922 -19.19922,-19.19922 z m 0,0"
     id="path66"
     inkscape:connector-curvature="0" />
  <path
     d="m 107.49609,406.39453 h 26.39844 l 14.40234,-34.40234 -35.19921,-17.59766 c -11.20313,-5.60156 -16.000003,-18.40234 -12,-29.60156 l 45.59765,-122.39844 c 4.80078,-12.80078 18.40235,-18.40234 31.19922,-14.40234 0,0 0.80078,0 0.80078,0.80078 l 33.60156,14.40234 4,-11.20312 -18.40234,-21.59766 c -12.79687,-14.40234 -20.79687,-32 -23.19922,-51.19922 L 151.49609,91.195312 c -15.19921,-17.601562 -12,-44 5.60157,-59.203124 3.19921,-2.398438 6.39843,-4.796876 9.59765,-6.398438 8.80078,-4 17.60156,-4.800781 27.19922,-2.398438 l 2.40234,-7.203124 c 4,-12.796876 18.39844,-19.199219 30.39844,-14.398438 l 168.80078,60.800781 c 12.80078,4.800781 19.19922,18.398438 14.39844,30.398438 v 0.800781 l -4,10.39844 c 20.80078,9.60156 30.40234,33.60156 23.20313,54.40234 -5.60157,16 -20,27.19922 -36.80079,29.59766 l -37.60156,4 c -15.19922,11.20312 -33.59765,18.40234 -52,20 l -26.39844,2.40234 -4.80078,12 c 5.60157,3.19922 9.60157,8.80078 11.19922,16 l 5.60156,27.19922 195.19922,79.19922 -5.60156,15.19922 -112,-44.79688 -27.19922,81.59766 144.80078,60 -6.39843,14.40234 -229.60157,-95.20312 -40,4.80078 -14.39843,44 19.19921,18.40234 c 7.19922,6.39844 9.59766,16.79688 5.59766,26.39844 l -8,20 -132.796873,-52 7.199218,-19.19922 c 4.800782,-10.40234 13.597656,-16 23.199215,-16 z m 43.19922,1.59766 28.80078,9.60156 10.39844,-30.39844 c -4.79687,0.79688 -8.79687,0 -12.79687,-2.40234 l -13.60157,-6.39844 z m 21.60156,-206.39844 c -4,-1.60156 -8.80078,0 -10.40234,4 l -6.39844,16.80078 39.19922,12.80078 -4.80078,15.19922 -39.19922,-12.80078 -9.59765,25.60156 37.59765,12.79688 -4.80078,15.20312 -38.39844,-12.80078 -9.60156,25.59766 36.80078,12 -4.80078,15.20312 -37.59766,-12.80078 -4,10.39844 c -1.60156,4 0,8 4,9.60156 l 63.19922,31.19922 c 1.60157,0.80078 3.19922,0.80078 4.80078,0.80078 l 54.39844,-6.40234 29.60156,-88.79688 -5.60156,-29.60156 c -0.80078,-2.39844 -2.39844,-4.80078 -4.80078,-5.60156 z m 0.80079,-161.601562 c -12.80079,5.601562 -19.20313,20.800781 -13.60157,34.402343 0.80078,2.398438 2.39844,4 4,6.398438 l 9.60157,12 c 0.79687,-8 2.39843,-15.199219 4.79687,-23.199219 l 10.40234,-31.199219 c -5.60156,-0.800781 -10.40234,0 -15.19921,1.597657 z m 240,114.402342 c 4.79687,-13.60156 -0.80079,-28 -13.60157,-34.40234 l -11.19922,27.20312 c -4,9.59766 -9.60156,19.19922 -16,27.19922 l 16.80079,-1.60156 c 11.19921,-0.80078 20.79687,-8 24,-18.39844 z m -113.60157,42.39844 c 32.80078,-3.19922 61.60157,-24 73.60157,-55.19922 l 20.79687,-52.800781 c 1.60156,-4 0,-8.800781 -4,-10.398438 L 221.09766,17.59375 c -2.40235,-0.800781 -4,-0.800781 -6.40235,0 -1.59765,0.800781 -3.19922,2.398438 -4,4.800781 l -17.59765,52.800781 c -9.60157,29.597658 -3.20313,61.597658 16.79687,84.796878 l 24.80078,28.80078 -7.19922,19.19922 28.80078,12 8,-20 z m 51.19922,116 -18.39844,-7.19922 -20,60.80078 -15.19921,-4.80078 20.79687,-62.39844 -32,-12.80078 -27.19922,80.80078 64.80078,27.19922 z m -149.59765,160 2.39843,-4.80078 c 0.80078,-3.19922 0,-6.39844 -1.60156,-8.79688 l -27.19922,-25.60156 -34.39844,-11.19922 h -32 c -3.19921,0 -6.40234,2.39844 -7.19921,4.80078 l -1.601566,4.79688 z m 0,0"
     id="path68"
     inkscape:connector-curvature="0" />
  <path
     d="m 40.296875,203.99219 v -8 h 16 v 8 c 0,22.40234 17.597656,40 40,40 v 16 c -22.402344,0 -40,17.60156 -40,40 v 8 h -16 v -8 c 0,-22.39844 -17.601562,-40 -40,-40 v -16 c 22.398438,0 40,-17.59766 40,-40 z m 8,67.20312 c 4.800782,-8 11.199219,-14.40234 19.199219,-19.20312 -8,-4.79688 -14.398437,-11.19922 -19.199219,-19.19922 -4.800781,8 -11.199218,14.40234 -19.199218,19.19922 8,4.80078 14.398437,11.20312 19.199218,19.20312 z m 0,0"
     id="path70"
     inkscape:connector-curvature="0" />
  <path
     d="m 245.89453,142.39453 -11.19922,11.19922 c -44,-44 -3.19922,-111.199219 -0.80078,-113.601562 l 13.60156,8.800781 c -0.80078,0 -36.80078,58.402341 -1.60156,93.601561 z m 0,0"
     id="path72"
     inkscape:connector-curvature="0" />
</svg>
